Coordinates
version=1
nRows=13
nColumns=30
inDegrees=yes

Units are S.I. units (second, meters, Newtons, ...)
Angles are in degrees.

endheader
time	floatyaw	floatroll	floatpitch	floatx	floaty	floatz	pro_sup_l	deviation_l	flexion_l	cmc_flexion_l	cmc_abduction_l	mp_flexion_l	ip_flexion_l	2mcp_flexion_l	2mcp_abduction_l	2pm_flexion_l	2md_flexion_l	3mcp_flexion_l	3mcp_abduction_l	3pm_flexion_l	3md_flexion_l	4mcp_flexion_l	4mcp_abduction_l	4pm_flexion_l	4md_flexion_l	5mcp_flexion_l	5mcp_abduction_l	5pm_flexion_l	5md_flexion_l
0.005000	-1.782892	-2.032873	94.941017	0.169822	-0.282688	0.191107	118.509611	18.919983	27.069855	11.397039	34.224626	-16.114682	-31.786665	43.388799	10.259190	42.007996	46.189230	53.376949	6.845586	49.723110	59.031593	51.696767	-6.728174	71.866685	57.370454	26.630038	-12.527710	73.113567	57.261629
0.015000	-1.782892	-2.032873	94.941017	0.169303	-0.281648	0.190751	118.466611	18.706371	26.379558	12.937388	35.050482	-16.537734	-35.515525	43.614203	10.370742	42.406139	47.666581	53.309298	6.810091	50.957757	60.491451	51.462151	-6.767155	73.231054	58.723027	26.331797	-12.475183	74.143852	58.039498
0.025000	-1.782892	-2.032873	94.941017	0.168686	-0.280608	0.190382	118.441029	18.515185	25.645599	14.338158	35.821372	-16.828237	-39.018178	43.813416	10.505261	42.760741	49.063460	53.252727	6.786383	52.111425	61.808786	51.266812	-6.803952	74.541828	59.966609	26.062491	-12.418323	75.140547	58.758811
0.035000	-1.782892	-2.032873	94.941017	0.168007	-0.279639	0.189961	118.384555	18.317467	24.947267	15.505595	36.460424	-16.975022	-42.073767	43.973269	10.645603	43.054224	50.329479	53.213746	6.774445	53.129492	62.953174	51.123397	-6.835547	75.744837	61.070765	25.826254	-12.364640	76.059323	59.412484
0.045000	-1.782892	-2.032873	94.941017	0.167308	-0.278802	0.189456	118.259509	18.088315	24.355398	16.391804	36.938605	-16.980199	-44.549047	44.085129	10.774564	43.270073	51.445120	53.192069	6.773063	53.976534	63.925993	51.030718	-6.860305	76.796751	62.030388	25.620481	-12.321887	76.865211	60.005047
0.055000	-1.782892	-2.032873	94.941017	0.166622	-0.278142	0.188862	118.049349	17.814771	23.916429	16.995202	37.269892	-16.861421	-46.408925	44.147989	10.878963	43.394844	52.414032	53.182340	6.780817	54.637870	64.752253	50.977734	-6.878499	77.668168	62.859146	25.439603	-12.296251	77.535500	60.543886
0.065000	-1.782892	-2.032873	94.941017	0.165976	-0.277677	0.188206	117.763191	17.499817	23.643245	17.351769	37.494000	-16.651867	-47.699665	44.167201	10.952275	43.425044	53.246438	53.176687	6.796327	55.118177	65.465298	50.948261	-6.891900	78.345389	63.577669	25.277657	-12.290519	78.060043	61.031184
0.075000	-1.782892	-2.032873	94.941017	0.165387	-0.277399	0.187541	117.433668	17.161554	23.514977	17.520619	37.655333	-16.395945	-48.517010	44.151796	10.995332	43.372878	53.944956	53.168290	6.817876	55.437353	66.094134	50.925503	-6.902816	78.832646	64.203465	25.129850	-12.302782	78.440957	61.460486
0.085000	-1.782892	-2.032873	94.941017	0.164859	-0.277272	0.186938	117.108087	16.827781	23.485998	17.567971	37.787025	-16.140440	-48.974427	44.112661	11.014849	43.265364	54.501232	53.154835	6.842990	55.624102	66.659001	50.896049	-6.913122	79.153470	64.747009	24.993261	-12.326535	78.692481	61.819500
0.095000	-1.782892	-2.032873	94.941017	0.164395	-0.277241	0.186464	116.834342	16.527417	23.501709	17.553516	37.905170	-15.923585	-49.182113	44.061647	11.020212	43.136621	54.904012	53.139868	6.868487	55.709475	67.173674	50.853053	-6.923670	79.348036	65.213511	24.866585	-12.352801	78.840379	62.097349
0.105000	-1.782892	-2.032873	94.941017	0.163995	-0.277256	0.186160	116.645761	16.281688	23.515903	17.521874	38.012598	-15.766576	-49.237819	44.010294	11.019937	43.018759	55.151278	53.130869	6.891093	55.723605	67.648216	50.797740	-6.934228	79.465134	65.606373	24.749317	-12.373727	78.919656	62.291342
0.115000	-1.782892	-2.032873	94.941017	0.163663	-0.277278	0.186028	116.550895	16.098456	23.503270	17.499724	38.107138	-15.671174	-49.223325	43.967418	11.019432	42.936830	55.257171	53.134942	6.908307	55.696281	68.087824	50.738260	-6.943868	79.551188	65.929001	24.641286	-12.385727	78.969728	62.408790
0.125000	-1.782892	-2.032873	94.941017	0.163405	-0.277292	0.186036	116.532762	15.971711	23.462404	17.497356	38.188425	-15.623516	-49.200767	43.936818	11.020816	42.907622	55.250202	53.154795	6.919104	55.657923	68.489848	50.685786	-6.951587	79.640588	66.185318	24.542838	-12.390210	79.027066	62.463904
